<?xml version="1.0" encoding="UTF-8"?>
<svg id="Layer_1" data-name="Layer 1" xmlns="http://www.w3.org/2000/svg" viewBox="0 0 522 395">
  <defs>
    <style>
      .cls-1 {
        fill: #fff;
      }
    </style>
  </defs>
  <path class="cls-1" d="m360.65,241.68h-105.95c6.05,17.12,22.25,28.57,40.41,28.56h28.56v28.56h-28.56c-39.43,0-71.39-31.96-71.39-71.39v-14.28h148.64s89.95,89.81,89.95,89.81l-20.28,20.28-81.39-81.53Z"/>
  <path class="cls-1" d="m332.09,355.91h-128.51S46.52,198.84,46.52,198.84l9.99-10.14c29.89-27.68,76.06-27.68,105.95,0l42.84,42.84-20.28,20.28-42.84-42.84c-14.55-13.18-35.55-16.44-53.4-8.28l126.51,126.65h128.51s47.12,46.98,47.12,46.98l-20.28,20.28-38.55-38.69Z"/>
  <path class="cls-1" d="m171.32,95.32c-21.52-21.75-21.52-56.78,0-78.53,22.02-20.85,56.51-20.85,78.53,0l2.43,2.43,2.43-2.43c22.02-20.85,56.51-20.85,78.53,0,21.52,21.75,21.52,56.78,0,78.53l-80.96,80.82-80.96-80.82Zm141.64-20.28l.02-.02c10.48-10.49,10.47-27.48-.02-37.96-10.63-10.28-27.5-10.28-38.12,0l-22.56,22.56-22.56-22.56c-10.63-10.28-27.5-10.28-38.12,0,0,0-.01.01-.02.02-10.48,10.49-10.47,27.48.02,37.96l60.68,60.83,48.26-48.26,12.42-12.57Z"/>
</svg>